<?xml version="1.0" encoding="utf-8"?>
<!-- Generator: Adobe Illustrator 23.0.2, SVG Export Plug-In . SVG Version: 6.00 Build 0)  -->
<svg version="1.1" id="Layer_1" xmlns="http://www.w3.org/2000/svg" xmlns:xlink="http://www.w3.org/1999/xlink" x="0px" y="0px"
	 viewBox="0 0 92 53.4" style="enable-background:new 0 0 92 53.4;" xml:space="preserve">
<style type="text/css">
	.st0{fill:#3673FD;}
</style>
<g>
	<g id="Link_x5F_1_2_">
		<g>
			<path class="st0" d="M53.7,22.5c-0.2-1.5-1.6-2.5-3.1-2.2c-1.5,0.2-2.5,1.6-2.3,3.1c0.2,1.1,0.3,2.2,0.3,3.4
				c0,11.3-9.2,20.5-20.5,20.5S7.6,38,7.6,26.7S16.8,6.2,28.1,6.2c3.2,0,6.3,0.7,9.2,2.2c1.4,0.7,3,0.1,3.7-1.2
				c0.7-1.3,0.1-3-1.2-3.7c-3.6-1.8-7.5-2.7-11.6-2.7C13.8,0.8,2.2,12.4,2.2,26.7s11.6,25.9,25.9,25.9S54,41,54,26.7
				C54,25.3,53.9,23.8,53.7,22.5z"/>
		</g>
	</g>
	<g id="Link_x5F_1_1_">
		<g>
			<path class="st0" d="M63.6,0.8c-14.3,0-25.9,11.6-25.9,25.9c0,1.4,0.1,2.8,0.3,4.2c0.2,1.5,1.6,2.5,3.1,2.3
				c1.5-0.2,2.5-1.6,2.3-3.1c-0.2-1.1-0.3-2.2-0.3-3.3c0-11.3,9.2-20.5,20.5-20.5S84,15.4,84,26.7s-9.2,20.5-20.5,20.5
				c-3.2,0-6.3-0.7-9.2-2.2c-1.3-0.7-3-0.1-3.7,1.2c-0.7,1.3-0.1,3,1.2,3.7c3.6,1.8,7.5,2.7,11.6,2.7c14.3,0,25.9-11.6,25.9-25.9
				C89.5,12.4,77.9,0.8,63.6,0.8z"/>
		</g>
	</g>
</g>
</svg>
